# xmcd CD database file
# Copyright (C) 1996 Ti Kan
#
# Track frame offsets:
# 	187
# 	8082
# 	18220
# 	26672
# 	37215
# 	48087
# 	56940
# 	71077
# 	81767
# 	96427
# 	105330
#
# Disc length: 1521 seconds
#
# Revision: 1
# Processed by: cddbd v1.4b41PL1 Copyright (c) Steve Scherf et al.
# Submitted via: DiscPlay 3.4.1
#
DISCID=8905ef0b
DTITLE=Roger Miller - Dang Me!
DYEAR=1900
DGENRE=
TTITLE0=Dang Me
TTITLE1=Engine Engine #9
TTITLE2=Can't Rollerskate In A Buffalo Herd
TTITLE3=Release Me
TTITLE4=Don't We All Have The Right To Be Wrong
TTITLE5=My Uncle Used To Love Me (But She Died)
TTITLE6=My Elusive Dreams
TTITLE7=When Two Worlds Collide
TTITLE8=Me And Bobby McGee
TTITLE9=Billy Bayou
TTITLE10=England Swings
EXTD=
EXTT0=
EXTT1=
EXTT2=
EXTT3=
EXTT4=
EXTT5=
EXTT6=
EXTT7=
EXTT8=
EXTT9=
EXTT10=
PLAYORDER=
